<?xml version="1.0" encoding="utf-8"?>
<!-- Generator: Avocode 2.6.0 - http://avocode.com -->
<svg height="41" width="41" xmlns:xlink="http://www.w3.org/1999/xlink" xmlns="http://www.w3.org/2000/svg" viewBox="0 0 41 41">
    <path fill="#ffffff" fill-rule="evenodd" d="M 20.5 41 C 9.2 41 0 31.8 0 20.5 C 0 9.2 9.2 0 20.5 0 C 31.8 0 41 9.2 41 20.5 C 41 31.8 31.8 41 20.5 41 Z M 20.5 3.17 C 10.94 3.17 3.17 10.94 3.17 20.5 C 3.17 30.06 10.94 37.83 20.5 37.83 C 30.06 37.83 37.83 30.06 37.83 20.5 C 37.83 10.94 30.06 3.17 20.5 3.17 Z M 20.5 28.39 C 16.15 28.39 12.61 24.85 12.61 20.5 C 12.61 16.15 16.15 12.61 20.5 12.61 C 24.85 12.61 28.39 16.15 28.39 20.5 C 28.39 24.85 24.85 28.39 20.5 28.39 Z M 20.5 15.78 C 17.9 15.78 15.78 17.9 15.78 20.5 C 15.78 23.1 17.9 25.22 20.5 25.22 C 23.1 25.22 25.22 23.1 25.22 20.5 C 25.22 17.9 23.1 15.78 20.5 15.78 Z" />
</svg>