<?xml version="1.0" encoding="utf-8"?>
<!-- Generator: Avocode 2.6.0 - http://avocode.com -->
<svg height="25" width="20" xmlns:xlink="http://www.w3.org/1999/xlink" xmlns="http://www.w3.org/2000/svg" viewBox="0 0 20 25">
    <path fill="#c5c5c5" fill-rule="evenodd" d="M 19.8 17.77 C 18.98 17.52 18.24 16.94 17.6 16.02 C 16.96 15.1 16.64 14.05 16.64 12.91 C 16.64 11.85 16.94 10.88 17.54 10.02 C 17.88 9.53 18.41 8.99 19.13 8.37 C 18.66 7.79 18.17 7.31 17.68 6.98 C 16.82 6.38 15.83 6.07 14.71 6.07 C 14.03 6.07 13.22 6.24 12.3 6.55 C 11.38 6.87 10.71 7.02 10.31 7.02 C 9.98 7.02 9.34 6.88 8.38 6.6 C 7.4 6.32 6.6 6.18 5.91 6.18 C 4.31 6.18 3 6.85 1.95 8.19 C 0.9 9.55 0.38 11.27 0.38 13.41 C 0.38 15.69 1.07 18.02 2.43 20.42 C 3.81 22.82 5.19 24.03 6.62 24.03 C 7.08 24.03 7.7 23.88 8.46 23.56 C 9.22 23.25 9.89 23.1 10.44 23.1 C 11.02 23.1 11.73 23.24 12.55 23.55 C 13.39 23.84 14.03 23.99 14.5 23.99 C 15.69 23.99 16.89 23.09 18.09 21.26 C 18.9 20.05 19.45 18.88 19.8 17.77 Z M 14.56 1.41 C 14.56 1.32 14.55 1.23 14.55 1.14 C 14.53 1.05 14.5 0.95 14.48 0.83 C 12.86 1.2 11.69 1.89 10.99 2.89 C 10.29 3.9 9.93 5.1 9.9 6.48 C 10.56 6.42 11.03 6.34 11.35 6.24 C 11.85 6.07 12.36 5.74 12.86 5.23 C 13.44 4.65 13.88 4.01 14.15 3.31 C 14.42 2.63 14.56 1.99 14.56 1.41 Z" />
</svg>