<?xml version="1.0" encoding="utf-8"?>
<!-- Generator: Avocode 2.6.0 - http://avocode.com -->
<svg height="24" width="24" xmlns:xlink="http://www.w3.org/1999/xlink" xmlns="http://www.w3.org/2000/svg" viewBox="0 0 24 24">
    <path fill="#c5c5c5" fill-rule="evenodd" d="M 9.89 12.86 C 9.89 12.86 9.89 12.86 9.89 12.86 C 9.89 12.86 0.38 12.86 0.38 12.86 C 0.38 12.86 0.38 20.63 0.38 20.63 C 0.38 20.63 9.89 21.94 9.89 21.94 C 9.89 21.94 9.89 12.86 9.89 12.86 Z M 9.89 2.5 C 9.89 2.5 0.38 3.81 0.38 3.81 C 0.38 3.81 0.38 11.69 0.38 11.69 C 0.38 11.69 9.89 11.69 9.89 11.69 C 9.89 11.69 9.89 2.5 9.89 2.5 Z M 23.58 12.86 C 23.58 12.86 10.93 12.86 10.93 12.86 C 10.93 12.86 10.93 22.08 10.93 22.08 C 10.93 22.08 23.58 23.82 23.58 23.82 C 23.58 23.82 23.58 12.86 23.58 12.86 Z M 23.58 0.61 C 23.58 0.61 10.93 2.36 10.93 2.36 C 10.93 2.36 10.93 11.69 10.93 11.69 C 10.93 11.69 23.58 11.69 23.58 11.69 C 23.58 11.69 23.58 0.61 23.58 0.61 Z" />
</svg>